<svg width="40" height="38" viewBox="0 0 40 38" fill="none" xmlns="http://www.w3.org/2000/svg">
<path d="M10.7148 1C10.2682 1 9.90625 1.3663 9.90625 1.81818V6.84233C8.51856 7.21009 7.48072 8.48578 7.48072 10C7.48072 11.7977 8.93822 13.2727 10.7148 13.2727C12.4913 13.2727 13.9488 11.7977 13.9488 10C13.9488 8.48578 12.911 7.21009 11.5233 6.84233V1.81818C11.5233 1.3663 11.1613 1 10.7148 1ZM29.3105 1C28.864 1 28.502 1.3663 28.502 1.81818V6.84233C27.1143 7.21009 26.0765 8.48578 26.0765 10C26.0765 11.7977 27.534 13.2727 29.3105 13.2727C31.087 13.2727 32.5445 11.7977 32.5445 10C32.5445 8.48578 31.5067 7.21009 30.119 6.84233V1.81818C30.119 1.3663 29.757 1 29.3105 1ZM5.05519 3.45455C2.82325 3.45455 1 5.29961 1 7.55824V32.8963C1 35.1549 2.82325 37 5.05519 37H34.9448C37.1767 37 39 35.1549 39 32.8963V7.55824C39 5.29961 37.1767 3.45455 34.9448 3.45455H32.5319C32.1048 3.44841 31.7108 3.84044 31.7108 4.27273C31.7108 4.70501 32.1048 5.097 32.5319 5.09091H34.9448C36.3073 5.09091 37.383 6.1794 37.383 7.55824V14.9091H2.61702V7.55824C2.61702 6.1794 3.6926 5.09091 5.05519 5.09091H7.46809C7.89522 5.09705 8.28923 4.70501 8.28923 4.27273C8.28923 3.84044 7.89522 3.44845 7.46809 3.45455H5.05519ZM13.9362 3.45455C13.4896 3.45455 13.1277 3.82085 13.1277 4.27273C13.1277 4.72461 13.4896 5.09091 13.9362 5.09091H26.0638C26.5104 5.09091 26.8723 4.72461 26.8723 4.27273C26.8723 3.82085 26.5104 3.45455 26.0638 3.45455H13.9362ZM10.7148 8.36364C11.6174 8.36364 12.3318 9.08654 12.3318 10C12.3318 10.9134 11.6174 11.6364 10.7148 11.6364C9.81214 11.6364 9.09774 10.9134 9.09774 10C9.09774 9.08654 9.81214 8.36364 10.7148 8.36364ZM29.3105 8.36364C30.2131 8.36364 30.9275 9.08654 30.9275 10C30.9275 10.9134 30.2131 11.6364 29.3105 11.6364C28.4079 11.6364 27.6935 10.9134 27.6935 10C27.6935 9.08654 28.4079 8.36364 29.3105 8.36364ZM2.61702 16.5455H37.383V32.8963C37.383 34.2751 36.3073 35.3636 34.9448 35.3636H5.05519C3.6926 35.3636 2.61702 34.2751 2.61702 32.8963V16.5455Z" fill="#4263CA" stroke="#4263CA"/>
</svg>
