<svg width="41" height="40" viewBox="0 0 41 40" fill="none" xmlns="http://www.w3.org/2000/svg">
<path d="M34.0307 11.4186C35.332 10.0743 35.332 7.89754 34.0307 6.55463C32.7306 5.21034 30.6221 5.21034 29.3221 6.55463C28.0208 7.89892 28.0208 10.0757 29.3221 11.4186C30.6221 12.7629 32.7306 12.7629 34.0307 11.4186ZM26.3478 20.6387H31.0124C31.5225 20.9387 32.1739 20.8892 32.6094 20.4434L37.3233 15.6207C37.3793 15.5629 37.4046 15.49 37.4485 15.4267C37.5604 15.3235 37.6869 15.2478 37.7948 15.1377C41.1794 11.6745 41.1794 6.05929 37.7948 2.59743C34.4103 -0.865809 28.9225 -0.865809 25.538 2.59743C22.1534 6.06067 22.1534 11.6759 25.538 15.1377C25.6459 15.2478 25.7724 15.3235 25.8843 15.4267C25.9282 15.49 25.9535 15.5629 26.0095 15.6207L28.2672 17.9309H26.2639V17.9818C22.9925 18.03 20.3526 20.775 20.3526 24.1653C20.3526 27.5845 23.0365 30.2717 26.3465 30.2717H31.6744C33.5139 30.2717 35.0043 31.854 35.0043 33.7542C35.0043 35.6544 33.5139 37.194 31.6744 37.194H12.3114L14.657 34.7944C14.713 34.7366 14.7383 34.6651 14.7822 34.6004C14.8941 34.4972 15.0207 34.4215 15.1285 34.3114C18.5131 30.8482 18.5131 25.233 15.1285 21.7711C11.744 18.3079 6.25623 18.3079 2.87167 21.7711C-0.512888 25.2344 -0.512888 30.8496 2.87167 34.3114C2.97956 34.4215 3.1061 34.4972 3.21799 34.6004C3.26194 34.6651 3.28725 34.7366 3.34319 34.7944L8.05707 39.6171C8.41004 39.9789 8.90687 40.0739 9.35575 39.9459H31.7596V39.9377C35.031 39.8895 37.671 37.1445 37.671 33.7542C37.671 30.3859 35.0643 27.6588 31.8222 27.5776V27.5625L26.1826 27.5886C24.4231 27.4964 23.0192 26.0063 23.0192 24.1666C23.0179 22.2651 24.5083 20.6387 26.3478 20.6387ZM27.4374 13.2224L27.4387 13.2211C27.4347 13.2155 27.4294 13.2128 27.424 13.2087C25.0811 10.8118 25.0811 6.92476 27.424 4.52649C29.767 2.12961 33.5658 2.12961 35.9101 4.52649C38.253 6.92338 38.253 10.8104 35.9101 13.2087C35.8954 13.2238 35.8781 13.2321 35.8621 13.2472L35.8661 13.2527L31.6664 17.5484L27.4374 13.2224ZM9.00011 36.7235L4.77107 32.3948V32.3934C4.76708 32.3893 4.76175 32.3851 4.75642 32.381C2.41347 29.9841 2.41347 26.0971 4.75642 23.6988C7.09937 21.3019 10.8982 21.3019 13.2425 23.6988C15.5854 26.0957 15.5854 29.9827 13.2425 32.381C13.2278 32.3961 13.2105 32.4058 13.1945 32.4209L13.1985 32.425L9.00011 36.7235Z" fill="#4263CA"/>
</svg>
