<svg width="40" height="40" viewBox="0 0 40 40" fill="none" xmlns="http://www.w3.org/2000/svg">
<path d="M15.5651 31.1303C19.3615 31.1303 22.8128 29.7843 25.5047 27.5065L37.5841 39.5858C37.8602 39.8619 38.2054 40 38.585 40C38.9646 40 39.3098 39.8619 39.5859 39.5858C40.1381 39.0336 40.1381 38.1363 39.5859 37.5841L27.5065 25.5047C29.7498 22.8128 31.1303 19.327 31.1303 15.5651C31.1303 6.97153 24.1588 0 15.5651 0C7.00604 0 0 7.00604 0 15.5651C0 24.1588 7.00604 31.1303 15.5651 31.1303ZM15.5651 2.83003C22.6057 2.83003 28.3003 8.5591 28.3003 15.5651C28.3003 22.6057 22.6057 28.3003 15.5651 28.3003C8.52459 28.3003 2.83003 22.5712 2.83003 15.5651C2.83003 8.5591 8.5591 2.83003 15.5651 2.83003Z" fill="#8C8D8F"/>
</svg>
