<svg width="26" height="32" viewBox="0 0 26 32" fill="none" xmlns="http://www.w3.org/2000/svg">
<path d="M0 23.5789C0 25.0947 0.65 26.4421 1.625 27.2842V30.3158C1.625 31.3263 2.275 32 3.25 32H4.875C5.85 32 6.5 31.3263 6.5 30.3158V28.6316H19.5V30.3158C19.5 31.3263 20.15 32 21.125 32H22.75C23.725 32 24.375 31.3263 24.375 30.3158V27.2842C25.35 26.4421 26 25.0948 26 23.5789V6.73684C26 0.842105 20.15 0 13 0C5.85 0 0 0.842105 0 6.73684V23.5789ZM5.6875 25.2632C4.3875 25.2632 3.25 24.0842 3.25 22.7368C3.25 21.3895 4.3875 20.2105 5.6875 20.2105C6.9875 20.2105 8.125 21.3895 8.125 22.7368C8.125 24.0842 6.9875 25.2632 5.6875 25.2632ZM20.3125 25.2632C19.0125 25.2632 17.875 24.0842 17.875 22.7368C17.875 21.3895 19.0125 20.2105 20.3125 20.2105C21.6125 20.2105 22.75 21.3895 22.75 22.7368C22.75 24.0842 21.6125 25.2632 20.3125 25.2632ZM22.75 15.1579H3.25V6.73684H22.75V15.1579Z" fill="#AAA"/>
</svg>
