<svg width="30" height="32" viewBox="0 0 30 32" fill="none" xmlns="http://www.w3.org/2000/svg">
<path d="M20 15.1579V5.05263L15 0L10 5.05263V8.42105H0V32H30V15.1579H20ZM6.66667 28.6316H3.33333V25.2632H6.66667V28.6316ZM6.66667 21.8947H3.33333V18.5263H6.66667V21.8947ZM6.66667 15.1579H3.33333V11.7895H6.66667V15.1579ZM16.6667 28.6316H13.3333V25.2632H16.6667V28.6316ZM16.6667 21.8947H13.3333V18.5263H16.6667V21.8947ZM16.6667 15.1579H13.3333V11.7895H16.6667V15.1579ZM16.6667 8.42105H13.3333V5.05263H16.6667V8.42105ZM26.6667 28.6316H23.3333V25.2632H26.6667V28.6316ZM26.6667 21.8947H23.3333V18.5263H26.6667V21.8947Z" fill="#AAA"/>
</svg>
