<svg width="36" height="28" viewBox="0 0 36 28" fill="none" xmlns="http://www.w3.org/2000/svg">
<path d="M5.94381 18.0309C6.77864 21.4134 7.83991 22.8912 11.3834 24.4406C14.9268 25.99 16.6101 27.6799 18.0001 27.6799C19.39 27.6799 20.9661 26.1996 24.5099 24.6501C28.0537 23.1007 27.1084 22.6295 27.9432 19.2469L18.0001 24.0799L5.94381 18.0309ZM35.1197 9.20484L20.1349 0.813328C18.9606 0.155974 17.0396 0.155974 15.8657 0.813328L0.880461 9.20484C-0.293487 9.8622 -0.293487 10.9379 0.880461 11.5956L15.8653 19.9864C17.0396 20.6441 18.9606 20.6441 20.1345 19.9864L29.8213 14.5623L19.317 12.1017C18.9116 12.2022 18.4666 12.2583 17.9997 12.2583C16.1076 12.2583 14.5733 11.3457 14.5733 10.22C14.5733 9.09433 16.1076 8.18137 17.9997 8.18137C19.4689 8.18137 20.7184 8.73289 21.2051 9.50544L32.3312 13.1569L35.119 11.5956C36.2933 10.9382 36.2933 9.8622 35.1197 9.20484ZM30.5398 25.108C30.4254 25.8003 32.8499 26.9379 33.0811 24.9129C34.1225 15.7845 32.3319 13.1569 32.3319 13.1569L29.8216 14.5623C29.8216 14.5623 31.9499 16.588 30.5398 25.108Z" fill="#AAA"/>
</svg>
