<svg width="30" height="36" viewBox="0 0 30 36" fill="none" xmlns="http://www.w3.org/2000/svg">
<path d="M29.022 33.7155L23.7441 24.105C25.2408 23.8687 26.3436 22.5295 26.3436 21.0328V6.85333C26.3436 3.07221 23.2713 0 19.4902 0H10.5099C6.72867 0 3.57768 3.07221 3.57768 6.93217V21.0328C3.57768 22.6083 4.68053 23.8687 6.17725 24.1051L0.978121 33.7155C0.584248 34.5033 0.820572 35.4486 1.60832 35.8425C1.84464 36 2.08097 36 2.31729 36C2.86871 36 3.42014 35.6849 3.65646 35.2123L4.12911 34.4245H25.8709L26.3435 35.2123C26.6587 35.7637 27.1312 36 27.6827 36C27.919 36 28.1553 35.9213 28.3917 35.8425C29.1794 35.4486 29.4158 34.5033 29.022 33.7155ZM21.6171 26.6258H8.38294L9.72211 24.1838H20.2779L21.6171 26.6258ZM21.3808 21.3479C20.1204 21.3479 19.0963 20.3239 19.0963 19.0634C19.0963 17.803 20.1204 16.7789 21.3808 16.7789C22.6412 16.7789 23.6653 17.803 23.6653 19.0634C23.6652 20.2451 22.6412 21.3479 21.3808 21.3479ZM6.3348 7.79869C6.3348 5.35667 8.30416 3.38731 10.6674 3.38731H19.2538C21.6171 3.38731 23.6652 5.35667 23.6652 7.79869V11.5799C23.6652 12.4464 22.9562 13.0766 22.0897 13.0766H7.91029C7.04377 13.0766 6.41357 12.3676 6.41357 11.5799L6.3348 7.79869ZM8.61926 16.7002C9.87966 16.7002 10.9037 17.7243 10.9037 18.9847C10.9037 20.2451 9.87966 21.2692 8.61926 21.2692C7.35887 21.2692 6.3348 20.2451 6.3348 18.9847C6.3348 17.7243 7.35893 16.7002 8.61926 16.7002ZM5.38956 32.0613L7.12261 28.9891H22.8775L24.6106 32.0613H5.38956Z" fill="#AAA"/>
</svg>
