<svg width="48" height="48" viewBox="0 0 48 48" fill="none" xmlns="http://www.w3.org/2000/svg">
<path fill-rule="evenodd" clip-rule="evenodd" d="M47.849 19.8269L47.8362 19.7762L40.6554 1.72241C40.3354 0.702881 39.3818 0 38.3002 0H9.19302C8.105 0 7.1386 0.715576 6.83141 1.7478L0.117821 19.6179L0.0985945 19.6622L0.0858076 19.7129C0.0026167 20.0232 -0.0229876 20.3398 0.0218123 20.6501C0.0185469 20.7019 0.0152815 20.7537 0.0128401 20.8054C0.0105207 20.855 0.00899487 20.9045 0.00899487 20.9541V44.1245C0.00899487 46.2458 1.75622 47.9746 3.9002 47.9746H44.041C46.185 47.9746 47.9322 46.2458 47.9386 44.1245V20.9541C47.9386 20.8718 47.9386 20.7894 47.9322 20.7198C47.9578 20.4095 47.9322 20.1118 47.849 19.8269ZM28.9178 17.1039L28.8986 18.0981C28.8474 20.9414 26.8634 22.8538 23.9642 22.8538C22.5498 22.8538 21.3338 22.4042 20.457 21.5493C19.5802 20.6945 19.1002 19.5039 19.0746 18.0981L19.0554 17.1039H5.88421L10.9722 4.86328H36.521L41.7498 17.1039H28.9178ZM14.985 21.9673H4.91781V43.1113H43.0106V21.9673H32.9946C32.2778 23.6263 31.1706 25.0068 29.7498 25.9948C28.1306 27.1219 26.1274 27.7172 23.9706 27.7172C19.849 27.7172 16.5402 25.5831 14.985 21.9673Z" fill="#1890FF"/>
</svg>
