<svg width="64" height="64" viewBox="0 0 64 64" fill="none" xmlns="http://www.w3.org/2000/svg">
<path fill-rule="evenodd" clip-rule="evenodd" d="M60 27.705L56.9062 12.4525C56.4062 9.98914 53.9883 7.99988 51.5 7.99988H12.5C10.0117 7.99988 7.59375 9.99548 7.09375 12.4525L4 27.705H4.5C2.01172 27.705 0 29.7386 0 32.2523V43.3685C0 45.7113 1.75 47.6376 4 47.8905V47.9159C4 52.3807 7.58203 55.9999 12 55.9999C16.418 55.9999 20 52.3807 20 47.9159H44C44 52.3807 47.582 55.9999 52 55.9999C56.418 55.9999 60 52.3807 60 47.9159V47.8905C62.25 47.6376 64 45.7113 64 43.3685V32.2523C64 29.7386 61.9883 27.705 59.5 27.705H60ZM11.375 12.5468H52.375L55.5 27.7045H8.5L11.375 12.5468ZM55.5 43.368H59.5V32.2523H4.5V43.368H8.5V47.9154C8.5 49.8671 10.0684 51.4525 12 51.4525C13.9316 51.4525 15.5 49.8671 15.5 47.9154V43.368H48.5V47.9154C48.5 49.8671 50.0684 51.4525 52 51.4525C53.9316 51.4525 55.5 49.8671 55.5 47.9154V43.368ZM9.75 37.8104C9.75 38.2499 9.87305 38.6605 10.0879 39.0082C10.4844 39.6537 11.1934 40.0839 12 40.0839C13.2422 40.0839 14.25 39.0658 14.25 37.8104C14.25 36.5546 13.2422 35.5365 12 35.5365C10.7578 35.5365 9.75 36.5546 9.75 37.8104ZM52 40.0839C50.7578 40.0839 49.75 39.0658 49.75 37.8104C49.75 36.5546 50.7578 35.5365 52 35.5365C53.2422 35.5365 54.25 36.5546 54.25 37.8104C54.25 38.5663 53.8848 39.2367 53.3223 39.6498C52.9512 39.9227 52.4941 40.0839 52 40.0839Z" fill="#4263CA"/>
</svg>
