<svg width="64" height="64" viewBox="0 0 64 64" fill="none" xmlns="http://www.w3.org/2000/svg">
<mask id="mask0" mask-type="alpha" maskUnits="userSpaceOnUse" x="0" y="0" width="64" height="64">
<rect width="64" height="64" fill="white"/>
</mask>
<g mask="url(#mask0)">
<path fill-rule="evenodd" clip-rule="evenodd" d="M32 0C14.3242 0 0 14.3252 0 32C0 49.6748 14.3242 64 32 64C49.6758 64 64 49.6748 64 32C64 14.3252 49.6758 0 32 0ZM51.4434 51.4438C48.918 53.9688 45.9746 55.9561 42.6992 57.3374C39.3125 58.7749 35.7129 59.5 32 59.5C28.2871 59.5 24.6875 58.7749 21.3008 57.3438C18.0254 55.9561 15.0879 53.9751 12.5566 51.4502C10.0312 48.9248 8.04297 45.9814 6.66211 42.7061C5.22461 39.3125 4.5 35.7124 4.5 32C4.5 28.2876 5.22461 24.6875 6.65625 21.2998C8.04297 18.0249 10.0254 15.0874 12.5508 12.5562C15.0742 10.0312 18.0195 8.04395 21.293 6.6626C24.6875 5.2251 28.2871 4.5 32 4.5C35.7129 4.5 39.3125 5.2251 42.6992 6.65625C45.9746 8.04395 48.9121 10.0249 51.4434 12.5498C53.9688 15.0752 55.957 18.0186 57.3379 21.2939C58.7754 24.6875 59.5 28.2876 59.5 32C59.5 35.7124 58.7754 39.3125 57.3438 42.7002C55.957 45.9751 53.9746 48.9189 51.4434 51.4438ZM37.7656 37.5757C37.7656 36.332 38.7715 35.3257 40.0156 35.3257C41.2598 35.3257 42.2656 36.332 42.2656 37.5757C42.2656 43.2383 37.6602 47.8442 31.998 47.8442C26.334 47.8442 21.7285 43.2383 21.7285 37.5757C21.7285 36.332 22.7344 35.3257 23.9785 35.3257C25.2227 35.3257 26.2285 36.332 26.2285 37.5757C26.2285 40.7568 28.8164 43.3442 31.998 43.3442C35.1777 43.3442 37.7656 40.7568 37.7656 37.5757ZM12.1348 23.8999C12.1348 25.9712 13.8145 27.6499 15.8848 27.6499C17.9551 27.6499 19.6348 25.9712 19.6348 23.8999C19.6348 21.8286 17.9551 20.1499 15.8848 20.1499C13.8145 20.1499 12.1348 21.8286 12.1348 23.8999ZM48.0938 27.6499C46.0234 27.6499 44.3438 25.9712 44.3438 23.8999C44.3438 21.8286 46.0234 20.1499 48.0938 20.1499C50.1641 20.1499 51.8438 21.8286 51.8438 23.8999C51.8438 25.9712 50.1641 27.6499 48.0938 27.6499Z" fill="#97B725"/>
</g>
</svg>
