<svg width="64" height="64" viewBox="0 0 64 64" fill="none" xmlns="http://www.w3.org/2000/svg">
<mask id="mask0" mask-type="alpha" maskUnits="userSpaceOnUse" x="0" y="0" width="64" height="64">
<rect width="64" height="64" fill="white"/>
</mask>
<g mask="url(#mask0)">
<path fill-rule="evenodd" clip-rule="evenodd" d="M32 0C14.3242 0 0 14.3252 0 32C0 49.6748 14.3242 64 32 64C49.6758 64 64 49.6748 64 32C64 14.3252 49.6758 0 32 0ZM51.4434 51.4438C48.918 53.9688 45.9746 55.9561 42.6992 57.3374C39.3125 58.7749 35.7129 59.5 32 59.5C28.2871 59.5 24.6875 58.7749 21.3008 57.3438C18.0254 55.9561 15.0879 53.9751 12.5566 51.4502C10.0312 48.9248 8.04297 45.9814 6.66211 42.7061C5.22461 39.3125 4.5 35.7124 4.5 32C4.5 28.2876 5.22461 24.6875 6.65625 21.2998C6.99219 20.5063 7.36328 19.7329 7.76758 18.9805C8.38477 17.834 9.08203 16.7358 9.85352 15.689C10.668 14.5859 11.5684 13.5405 12.5508 12.5562C15.0742 10.0312 18.0195 8.04395 21.293 6.6626C24.6875 5.2251 28.2871 4.5 32 4.5C35.7129 4.5 39.3125 5.2251 42.6992 6.65625C45.9746 8.04395 48.9121 10.0249 51.4434 12.5498C53.9688 15.0752 55.957 18.0186 57.3379 21.2939C58.7754 24.6875 59.5 28.2876 59.5 32C59.5 35.7124 58.7754 39.3125 57.3438 42.7002C56.6289 44.3887 55.7559 45.9888 54.7305 47.4893C53.7676 48.8989 52.6699 50.2207 51.4434 51.4438ZM37.7656 45.5942C37.7656 46.8384 38.7715 47.8442 40.0156 47.8442C41.2598 47.8442 42.2656 46.8384 42.2656 45.5942C42.2656 39.9321 37.6602 35.3257 31.998 35.3257C26.334 35.3257 21.7285 39.9321 21.7285 45.5942C21.7285 46.8384 22.7344 47.8442 23.9785 47.8442C25.2227 47.8442 26.2285 46.8384 26.2285 45.5942C26.2285 42.4131 28.8164 39.8257 31.998 39.8257C35.1777 39.8257 37.7656 42.4131 37.7656 45.5942ZM12.1348 23.8999C12.1348 25.9712 13.8145 27.6499 15.8848 27.6499C17.9551 27.6499 19.6348 25.9712 19.6348 23.8999C19.6348 21.8286 17.9551 20.1499 15.8848 20.1499C13.8145 20.1499 12.1348 21.8286 12.1348 23.8999ZM48.0938 27.6499C46.0234 27.6499 44.3438 25.9712 44.3438 23.8999C44.3438 21.8286 46.0234 20.1499 48.0938 20.1499C50.1641 20.1499 51.8438 21.8286 51.8438 23.8999C51.8438 25.9712 50.1641 27.6499 48.0938 27.6499Z" fill="#F5222D"/>
</g>
</svg>
