<svg width="36" height="36" viewBox="0 0 36 36" fill="none" xmlns="http://www.w3.org/2000/svg">
<g opacity="0.3">
<path fill-rule="evenodd" clip-rule="evenodd" d="M33.75 15.584L32.0098 7.00488C31.7285 5.61914 30.3679 4.5 28.9688 4.5H7.03125C5.63208 4.5 4.27148 5.62305 3.99023 7.00488L2.25 15.584H2.53125C1.13208 15.584 0 16.7285 0 18.1426V24.3945C0 25.7129 0.984375 26.7959 2.25 26.9385V26.9521C2.25 29.4639 4.2644 31.5 6.75 31.5C9.2356 31.5 11.25 29.4639 11.25 26.9521H24.75C24.75 29.4639 26.7644 31.5 29.25 31.5C31.7356 31.5 33.75 29.4639 33.75 26.9521V26.9385C35.0156 26.7959 36 25.7129 36 24.3945V18.1426C36 16.7285 34.8679 15.584 33.4688 15.584H33.75ZM6.39844 7.05762H29.4609L31.2188 15.584H4.78125L6.39844 7.05762ZM31.2188 24.3955H33.4688V18.1426H2.53125V24.3955H4.78125V26.9531C4.78125 28.0508 5.66357 28.9424 6.75 28.9424C7.83643 28.9424 8.71875 28.0508 8.71875 26.9531V24.3955H27.2812V26.9531C27.2812 28.0508 28.1636 28.9424 29.25 28.9424C30.3364 28.9424 31.2188 28.0508 31.2188 26.9531V24.3955ZM5.48438 21.2686C5.48438 21.9746 6.05103 22.5469 6.75 22.5469C7.0459 22.5469 7.31812 22.4443 7.53369 22.2725C7.82715 22.0381 8.01562 21.6758 8.01562 21.2686C8.01562 20.5615 7.44897 19.9893 6.75 19.9893C6.05103 19.9893 5.48438 20.5615 5.48438 21.2686ZM29.25 22.5469C28.551 22.5469 27.9844 21.9746 27.9844 21.2686C27.9844 20.5615 28.551 19.9893 29.25 19.9893C29.949 19.9893 30.5156 20.5615 30.5156 21.2686C30.5156 21.5273 30.4395 21.7686 30.3086 21.9697C30.0823 22.3174 29.6926 22.5469 29.25 22.5469Z" fill="#1A1B20"/>
</g>
</svg>
