<svg width="44" height="44" viewBox="0 0 44 44" fill="none" xmlns="http://www.w3.org/2000/svg">
<circle cx="22" cy="22" r="22" fill="#FF0000"/>
<path d="M34.3058 11.7577H26.4717V10.4356C26.4717 10.1157 26.4089 9.79901 26.287 9.50352C26.165 9.20802 25.9863 8.93952 25.761 8.71336C25.5356 8.4872 25.2682 8.3078 24.9738 8.1854C24.6794 8.063 24.3638 8 24.0452 8H19.9548C19.3113 8 18.6941 8.2566 18.239 8.71336C17.784 9.17012 17.5283 9.78961 17.5283 10.4356V11.7577H9.69425C9.51038 11.7577 9.33404 11.831 9.20402 11.9615C9.07401 12.0921 9.00096 12.2691 9.00096 12.4536C8.99596 12.5463 9.01047 12.639 9.04354 12.7257C9.07661 12.8124 9.1275 12.8912 9.1929 12.9568C9.25831 13.0225 9.33675 13.0736 9.42313 13.1068C9.50951 13.1399 9.60189 13.1545 9.69425 13.1495H11.8781V29.7809C11.8781 31.1651 12.4259 32.4926 13.401 33.4714C14.3761 34.4501 15.6987 35 17.0777 35H26.957C28.336 35 29.6585 34.4501 30.6336 33.4714C31.6088 32.4926 32.1566 31.1651 32.1566 29.7809V13.1495H34.3058C34.3981 13.1545 34.4905 13.1399 34.5769 13.1068C34.6632 13.0736 34.7417 13.0225 34.8071 12.9568C34.8725 12.8912 34.9234 12.8124 34.9565 12.7257C34.9895 12.639 35.004 12.5463 34.999 12.4536C34.999 12.2691 34.926 12.0921 34.796 11.9615C34.666 11.831 34.4896 11.7577 34.3058 11.7577ZM18.9149 10.4356C18.9149 10.1587 19.0245 9.89323 19.2195 9.69748C19.4145 9.50173 19.679 9.39175 19.9548 9.39175H24.0452C24.321 9.39175 24.5855 9.50173 24.7805 9.69748C24.9755 9.89323 25.0851 10.1587 25.0851 10.4356V11.7577H18.9149V10.4356ZM30.77 29.7809C30.77 30.796 30.3683 31.7695 29.6532 32.4873C28.9381 33.205 27.9683 33.6082 26.957 33.6082H17.0777C16.0664 33.6082 15.0966 33.205 14.3815 32.4873C13.6664 31.7695 13.2646 30.796 13.2646 29.7809V13.1495H30.77V29.7809Z" fill="white"/>
<path d="M17.2519 29.607C17.4357 29.607 17.6121 29.5337 17.7421 29.4032C17.8721 29.2727 17.9452 29.0957 17.9452 28.9111V17.0813C17.9452 16.8967 17.8721 16.7197 17.7421 16.5892C17.6121 16.4587 17.4357 16.3854 17.2519 16.3854C17.068 16.3854 16.8917 16.4587 16.7617 16.5892C16.6316 16.7197 16.5586 16.8967 16.5586 17.0813V28.9111C16.5586 29.0957 16.6316 29.2727 16.7617 29.4032C16.8917 29.5337 17.068 29.607 17.2519 29.607Z" fill="white"/>
<path d="M21.9999 29.607C22.1838 29.607 22.3601 29.5337 22.4901 29.4032C22.6202 29.2727 22.6932 29.0957 22.6932 28.9111V17.0813C22.6932 16.8967 22.6202 16.7197 22.4901 16.5892C22.3601 16.4587 22.1838 16.3854 21.9999 16.3854C21.8161 16.3854 21.6397 16.4587 21.5097 16.5892C21.3797 16.7197 21.3066 16.8967 21.3066 17.0813V28.9111C21.3066 29.0957 21.3797 29.2727 21.5097 29.4032C21.6397 29.5337 21.8161 29.607 21.9999 29.607Z" fill="white"/>
<path d="M26.7499 29.607C26.9338 29.607 27.1101 29.5337 27.2401 29.4032C27.3702 29.2727 27.4432 29.0957 27.4432 28.9111V17.0813C27.4432 16.8967 27.3702 16.7197 27.2401 16.5892C27.1101 16.4587 26.9338 16.3854 26.7499 16.3854C26.5661 16.3854 26.3897 16.4587 26.2597 16.5892C26.1297 16.7197 26.0566 16.8967 26.0566 17.0813V28.9111C26.0566 29.0957 26.1297 29.2727 26.2597 29.4032C26.3897 29.5337 26.5661 29.607 26.7499 29.607Z" fill="white"/>
</svg>
