<svg width="36" height="36" viewBox="0 0 36 36" fill="none" xmlns="http://www.w3.org/2000/svg">
<path fill-rule="evenodd" clip-rule="evenodd" d="M33.2592 15.5332C33.6844 16.5479 33.9894 17.5237 34 17.7209V17.7351V17.7422C33.9894 17.9395 33.6844 18.9153 33.2592 19.9299C32.8231 20.9763 32.0857 22.4912 31.0648 23.7559C29.7213 25.4187 28.0729 26.7468 26.1658 27.6946C23.8048 28.8713 21.0575 29.4666 17.9982 29.4666C14.9425 29.4666 12.1952 28.8713 9.83069 27.6946C7.9165 26.7434 6.26807 25.4153 4.93164 23.7524C3.91431 22.4912 3.18042 20.9763 2.74084 19.9299C2.31555 18.9119 2.01062 17.9358 2 17.7385V17.7317V17.7246C2.01062 17.5273 2.31201 16.5513 2.7373 15.5369C3.17334 14.4905 3.90723 12.9756 4.9281 11.7073C6.27869 10.0374 7.92712 8.71265 9.82715 7.76855C12.1775 6.59546 14.9283 6 17.9946 6C21.0646 6 23.8154 6.5918 26.1658 7.76514C28.08 8.71631 29.7284 10.0444 31.0648 11.7073C32.0857 12.9719 32.8231 14.4868 33.2592 15.5332ZM29.0867 22.1602C30.3842 20.5535 31.1676 18.3411 31.3696 17.728C31.1676 17.1152 30.3806 14.8992 29.076 13.2786C27.9666 11.8975 26.6052 10.7983 25.0242 10.0127C23.0355 9.01587 20.671 8.51196 17.9946 8.51196C15.3289 8.51196 12.9608 9.01587 10.9545 10.0127C9.37695 10.7983 8.01208 11.894 6.89905 13.2751C5.59448 14.8955 4.8075 17.1116 4.60547 17.7246C4.8075 18.3411 5.59448 20.5605 6.89905 22.1741C8.00854 23.5552 9.36987 24.6543 10.9509 25.4399C12.9537 26.437 15.3182 26.9443 17.984 26.9443C20.6462 26.9443 23.0143 26.437 25.0171 25.4399C26.6017 24.6472 27.9666 23.5515 29.069 22.1777L29.0867 22.1602Z" fill="#CCCCCC"/>
<path fill-rule="evenodd" clip-rule="evenodd" d="M11.6 17.2C11.6 13.967 14.4695 11.3333 18 11.3333C21.5305 11.3333 24.4 13.967 24.4 17.2C24.4 20.4329 21.5269 23.0667 18 23.0667C14.4731 23.0667 11.6 20.4329 11.6 17.2ZM20.6627 19.6406C21.3755 18.9873 21.767 18.1206 21.767 17.1997C21.767 16.2791 21.3755 15.4124 20.6627 14.759C19.95 14.1057 19.0045 13.7468 18 13.7468C16.9955 13.7468 16.0502 14.1057 15.3374 14.759C14.6246 15.4124 14.2332 16.2791 14.2332 17.1997C14.2332 18.1206 14.6246 18.9873 15.3374 19.6406C16.0502 20.2939 16.9955 20.6528 18 20.6528C19.0045 20.6528 19.95 20.2939 20.6627 19.6406Z" fill="#CCCCCC"/>
</svg>
