<svg width="36" height="36" viewBox="0 0 36 36" fill="none" xmlns="http://www.w3.org/2000/svg">
<g opacity="0.3">
<path fill-rule="evenodd" clip-rule="evenodd" d="M18.6289 19.8322C15.8522 19.8322 13.5385 17.5185 13.5385 14.7418C13.5385 11.9651 15.8522 9.65137 18.6289 9.65137C21.4056 9.65137 23.7193 11.9651 23.7193 14.7418C23.7193 17.5185 21.6368 19.8322 18.6289 19.8322ZM18.6289 7.10596C14.4475 7.10596 10.9933 10.5601 10.9933 14.7416C10.9933 18.9231 14.4475 22.3773 18.6289 22.3773C22.8104 22.3773 26.2646 18.9231 26.2646 14.7416C26.2646 10.5601 22.9923 7.10596 18.6289 7.10596Z" fill="#1A1B20"/>
<mask id="mask0" mask-type="alpha" maskUnits="userSpaceOnUse" x="4" y="0" width="29" height="36">
<path fill-rule="evenodd" clip-rule="evenodd" d="M32.5629 0.203613V35.8376H4.09094V0.203613L32.5629 0.203613V0.203613Z" fill="white"/>
</mask>
<g mask="url(#mask0)">
<path fill-rule="evenodd" clip-rule="evenodd" d="M18.3268 31.9471C18.3268 31.9471 6.67908 20.8723 6.67908 14.4395C6.67908 8.0067 11.894 2.79199 18.3268 2.79199C24.7596 2.79199 29.9745 8.0067 29.9745 14.4395C29.9745 20.8723 18.3268 31.9471 18.3268 31.9471ZM18.3269 0.203613C10.4647 0.203613 4.09082 6.57724 4.09082 14.4395C4.09082 22.3019 18.3269 35.8377 18.3269 35.8377C18.3269 35.8377 32.563 22.3019 32.563 14.4395C32.563 6.57724 26.1891 0.203613 18.3269 0.203613Z" fill="#1A1B20"/>
</g>
</g>
</svg>
