<svg width="108" height="21" viewBox="0 0 108 21" fill="none" xmlns="http://www.w3.org/2000/svg">
<path d="M8.6046 0.542194H12.2276V16.3562H8.6046V10.0758H3.62299V16.3562H0V0.542194H3.62299V6.5967H8.6046V0.542194Z" fill="white"/>
<path d="M17.96 3.47908C17.5675 3.87067 17.092 4.06646 16.5334 4.06646C15.9749 4.06646 15.4918 3.87067 15.0842 3.47908C14.6917 3.07244 14.4955 2.59049 14.4955 2.03323C14.4955 1.47597 14.6917 1.00155 15.0842 0.609969C15.4918 0.203323 15.9749 0 16.5334 0C17.092 0 17.5675 0.203323 17.96 0.609969C18.3676 1.00155 18.5714 1.47597 18.5714 2.03323C18.5714 2.59049 18.3676 3.07244 17.96 3.47908ZM14.8351 16.3562V5.06048H18.2317V16.3562H14.8351Z" fill="white"/>
<path d="M27.3518 8.31365H25.0195V12.3123C25.0195 12.7642 25.2006 13.0503 25.5629 13.1708C25.9252 13.2913 26.5215 13.329 27.3518 13.2838V16.3562C25.1931 16.5821 23.6986 16.3788 22.8683 15.7462C22.0381 15.0986 21.6229 13.954 21.6229 12.3123V8.31365H19.8114V5.06048H21.6229V2.9143L25.0195 1.89768V5.06048H27.3518V8.31365Z" fill="white"/>
<path d="M47.6073 4.7442C48.8149 4.7442 49.8188 5.15838 50.6189 5.98673C51.4341 6.81509 51.8416 7.95972 51.8416 9.42063V16.3562H48.4451V9.91764C48.4451 9.25496 48.2564 8.75042 47.879 8.40402C47.5167 8.04255 47.0487 7.86182 46.4751 7.86182C45.826 7.86182 45.3127 8.05762 44.9353 8.4492C44.5579 8.84079 44.3692 9.42063 44.3692 10.1887V16.3562H40.9727V0.542194H44.3692V6.12228C45.0485 5.20356 46.1279 4.7442 47.6073 4.7442Z" fill="white"/>
<path d="M62.3938 5.06048H65.7903V16.3562H62.3938V15.2944C61.5937 16.2131 60.4691 16.6725 59.0199 16.6725C57.5254 16.6725 56.2498 16.1002 55.1931 14.9555C54.1364 13.7958 53.608 12.3801 53.608 10.7083C53.608 9.03658 54.1364 7.62838 55.1931 6.48374C56.2498 5.32405 57.5254 4.7442 59.0199 4.7442C60.4691 4.7442 61.5937 5.20356 62.3938 6.12228V5.06048ZM57.7518 12.719C58.25 13.216 58.8991 13.4645 59.6992 13.4645C60.4993 13.4645 61.1484 13.216 61.6465 12.719C62.1447 12.222 62.3938 11.5518 62.3938 10.7083C62.3938 9.86493 62.1447 9.19472 61.6465 8.69771C61.1484 8.20069 60.4993 7.95219 59.6992 7.95219C58.8991 7.95219 58.25 8.20069 57.7518 8.69771C57.2537 9.19472 57.0046 9.86493 57.0046 10.7083C57.0046 11.5518 57.2537 12.222 57.7518 12.719Z" fill="white"/>
<path d="M71.6787 7.07112C71.8901 6.3482 72.3128 5.79847 72.9468 5.42195C73.5959 5.03036 74.3054 4.83457 75.0753 4.83457V8.67511C74.245 8.53957 73.4676 8.68264 72.743 9.10435C72.0335 9.511 71.6787 10.2264 71.6787 11.2505V16.3562H68.2822V5.06048H71.6787V7.07112Z" fill="white"/>
<path d="M79.7878 3.47908C79.3953 3.87067 78.9198 4.06646 78.3613 4.06646C77.8027 4.06646 77.3197 3.87067 76.9121 3.47908C76.5196 3.07244 76.3233 2.59049 76.3233 2.03323C76.3233 1.47597 76.5196 1.00155 76.9121 0.609969C77.3197 0.203323 77.8027 0 78.3613 0C78.9198 0 79.3953 0.203323 79.7878 0.609969C80.1954 1.00155 80.3992 1.47597 80.3992 2.03323C80.3992 2.59049 80.1954 3.07244 79.7878 3.47908ZM76.663 16.3562V5.06048H80.0596V16.3562H76.663Z" fill="white"/>
<path d="M90.7647 0.542194H94.1613V16.3562H90.7647V15.2944C89.9646 16.2131 88.84 16.6725 87.3908 16.6725C85.8963 16.6725 84.6207 16.1002 83.564 14.9555C82.5073 13.7958 81.979 12.3801 81.979 10.7083C81.979 9.03658 82.5073 7.62838 83.564 6.48374C84.6207 5.32405 85.8963 4.7442 87.3908 4.7442C88.84 4.7442 89.9646 5.20356 90.7647 6.12228V0.542194ZM86.1227 12.719C86.6209 13.216 87.27 13.4645 88.0701 13.4645C88.8702 13.4645 89.5193 13.216 90.0175 12.719C90.5156 12.222 90.7647 11.5518 90.7647 10.7083C90.7647 9.86493 90.5156 9.19472 90.0175 8.69771C89.5193 8.20069 88.8702 7.95219 88.0701 7.95219C87.27 7.95219 86.6209 8.20069 86.1227 8.69771C85.6246 9.19472 85.3755 9.86493 85.3755 10.7083C85.3755 11.5518 85.6246 12.222 86.1227 12.719Z" fill="white"/>
<path fill-rule="evenodd" clip-rule="evenodd" d="M28.4326 10.6909C28.4326 7.37869 31.1133 4.68396 34.4078 4.68396C36.6626 4.68396 38.6299 5.94608 39.6471 7.8045L37.1328 9.19806C36.6055 8.22903 35.5817 7.5704 34.4078 7.5704C32.6964 7.5704 31.304 8.97018 31.304 10.6908C31.304 12.4112 32.6964 13.811 34.4078 13.811C35.5709 13.811 36.5865 13.1646 37.118 12.2104L39.6407 13.6087C38.101 16.7512 35.4624 19.9455 34.6599 20.8839C34.5968 20.9576 34.5048 21 34.408 21C34.3112 21 34.2191 20.9576 34.156 20.8839C33.3135 19.8989 30.4491 16.4292 28.9552 13.1429C28.6085 12.3798 28.4326 11.5549 28.4326 10.6909Z" fill="#CADEF3"/>
<path fill-rule="evenodd" clip-rule="evenodd" d="M102.024 4.68396C98.7299 4.68396 96.0492 7.37869 96.0492 10.6909C96.0492 11.5549 96.2251 12.3798 96.5718 13.1429C98.0657 16.4292 100.93 19.8989 101.773 20.8839C101.836 20.9576 101.928 21 102.025 21C102.121 21 102.213 20.9576 102.276 20.8839C103.044 19.9862 105.492 17.0239 107.051 14.0174L104.483 12.5938C103.915 13.3336 103.024 13.811 102.024 13.811C100.764 13.811 99.6759 13.0513 99.1906 11.9634H104.858H107.371H107.867C107.955 11.5511 108 11.1259 108 10.6909C108 7.37869 105.319 4.68396 102.024 4.68396ZM104.874 9.45325C104.396 8.3465 103.299 7.5704 102.024 7.5704C100.75 7.5704 99.6526 8.3465 99.1752 9.45325H104.874Z" fill="#97B725"/>
</svg>
