<svg width="229" height="51" viewBox="0 0 229 51" fill="none" xmlns="http://www.w3.org/2000/svg">
<path fill-rule="evenodd" clip-rule="evenodd" d="M171.203 15.464C165.965 15.464 161.703 19.7581 161.703 25.0363C161.703 26.413 161.983 27.7274 162.534 28.9435C164.909 34.1804 169.463 39.7094 170.803 41.2791C170.903 41.3964 171.049 41.464 171.203 41.464C171.357 41.464 171.503 41.3964 171.604 41.2791C172.824 39.8484 176.716 35.1279 179.195 30.337L175.111 28.0684C174.208 29.2473 172.792 30.0081 171.203 30.0081C169.198 30.0081 167.469 28.7975 166.698 27.064H175.708H179.703H180.492C180.632 26.407 180.703 25.7295 180.703 25.0363C180.703 19.7581 176.441 15.464 171.203 15.464ZM175.733 23.064C174.974 21.3004 173.229 20.0636 171.203 20.0636C169.177 20.0636 167.432 21.3004 166.673 23.064H175.733Z" fill="#6FA6F8"/>
<path d="M122.958 19.268C123.294 18.116 123.966 17.24 124.974 16.64C126.006 16.016 127.134 15.704 128.358 15.704V21.824C127.038 21.608 125.802 21.836 124.65 22.508C123.522 23.156 122.958 24.296 122.958 25.928V34.064H117.558V16.064H122.958V19.268Z" fill="white"/>
<path d="M135.85 13.544C135.226 14.168 134.47 14.48 133.582 14.48C132.694 14.48 131.926 14.168 131.278 13.544C130.654 12.896 130.342 12.128 130.342 11.24C130.342 10.352 130.654 9.596 131.278 8.972C131.926 8.324 132.694 8 133.582 8C134.47 8 135.226 8.324 135.85 8.972C136.498 9.596 136.822 10.352 136.822 11.24C136.822 12.128 136.498 12.896 135.85 13.544ZM130.882 34.064V16.064H136.282V34.064H130.882Z" fill="white"/>
<path d="M153.302 8.864H158.702V34.064H153.302V32.372C152.03 33.836 150.242 34.568 147.938 34.568C145.562 34.568 143.534 33.656 141.854 31.832C140.174 29.984 139.334 27.728 139.334 25.064C139.334 22.4 140.174 20.156 141.854 18.332C143.534 16.484 145.562 15.56 147.938 15.56C150.242 15.56 152.03 16.292 153.302 17.756V8.864ZM145.922 28.268C146.714 29.06 147.746 29.456 149.018 29.456C150.29 29.456 151.322 29.06 152.114 28.268C152.906 27.476 153.302 26.408 153.302 25.064C153.302 23.72 152.906 22.652 152.114 21.86C151.322 21.068 150.29 20.672 149.018 20.672C147.746 20.672 146.714 21.068 145.922 21.86C145.13 22.652 144.734 23.72 144.734 25.064C144.734 26.408 145.13 27.476 145.922 28.268Z" fill="white"/>
<path d="M88.2393 30V33.2627C88.2393 33.9765 88.8402 34.5551 89.5813 34.5551H90.9362C91.6774 34.5551 92.2782 33.9765 92.2782 33.2627V30H88.2393Z" fill="#ADCC40"/>
<path d="M110.079 34.5551C110.82 34.5551 111.421 33.9765 111.421 33.2627V30H107.382V33.2627C107.382 33.9765 107.983 34.5551 108.724 34.5551H110.079Z" fill="#ADCC40"/>
<path d="M94.8707 10C93.7154 10 92.6898 10.7119 92.3245 11.7674L88.9103 21.6314H91.5943L94.6311 13.4425C94.8218 12.9281 95.3277 12.5847 95.8949 12.5847H103.765C104.332 12.5847 104.838 12.9281 105.029 13.4425L108.066 21.6314H110.75L107.335 11.7674C106.97 10.7119 105.945 10 104.789 10H94.8707Z" fill="#ADCC40"/>
<path fill-rule="evenodd" clip-rule="evenodd" d="M112.148 30C112.488 30 112.763 29.7249 112.763 29.3856V22.9237C112.763 22.21 112.162 21.6314 111.421 21.6314H110.75H108.066H91.5943H88.9103H88.2393C87.4982 21.6314 86.8974 22.21 86.8974 22.9237V29.3856C86.8974 29.7249 87.1724 30 87.5118 30H88.2393H92.2782H107.382H111.421H112.148ZM88.9103 25.5085C88.9103 26.936 90.112 28.0932 91.5943 28.0932C93.0765 28.0932 94.2782 26.936 94.2782 25.5085C94.2782 24.081 93.0765 22.9237 91.5943 22.9237C90.112 22.9237 88.9103 24.081 88.9103 25.5085ZM105.382 25.5085C105.382 26.936 106.583 28.0932 108.066 28.0932C109.548 28.0932 110.75 26.936 110.75 25.5085C110.75 24.081 109.548 22.9237 108.066 22.9237C106.583 22.9237 105.382 24.081 105.382 25.5085Z" fill="#ADCC40"/>
<path d="M75.6883 15.56C77.6083 15.56 79.2043 16.22 80.4763 17.54C81.7723 18.86 82.4203 20.684 82.4203 23.012V34.064H77.0203V23.804C77.0203 22.748 76.7203 21.944 76.1203 21.392C75.5443 20.816 74.8003 20.528 73.8883 20.528C72.8563 20.528 72.0403 20.84 71.4403 21.464C70.8403 22.088 70.5403 23.012 70.5403 24.236V34.064H65.1403V8.864H70.5403V17.756C71.6203 16.292 73.3363 15.56 75.6883 15.56Z" fill="white"/>
<path fill-rule="evenodd" clip-rule="evenodd" d="M45.2033 25.0363C45.2033 19.7581 49.4651 15.464 54.7029 15.464C58.2877 15.464 61.4152 17.4752 63.0326 20.4366L59.0354 22.6573C58.197 21.1132 56.5693 20.0636 54.7029 20.0636C51.9821 20.0636 49.7683 22.2942 49.7683 25.036C49.7683 27.7775 51.9821 30.0081 54.7029 30.0081C56.552 30.0081 58.1669 28.9781 59.0119 27.4576L63.0225 29.6858C60.5743 34.6934 56.3796 39.7837 55.1038 41.2791C55.0034 41.3964 54.8571 41.464 54.7032 41.464C54.5492 41.464 54.4029 41.3964 54.3026 41.2791C52.9631 39.7094 48.4093 34.1804 46.0341 28.9435C45.483 27.7274 45.2033 26.413 45.2033 25.0363Z" fill="#CADEF3"/>
<path d="M13.68 8.864H19.44V34.064H13.68V24.056H5.76V34.064H0V8.864H5.76V18.512H13.68V8.864Z" fill="white"/>
<path d="M28.5536 13.544C27.9296 14.168 27.1736 14.48 26.2856 14.48C25.3976 14.48 24.6296 14.168 23.9816 13.544C23.3576 12.896 23.0456 12.128 23.0456 11.24C23.0456 10.352 23.3576 9.596 23.9816 8.972C24.6296 8.324 25.3976 8 26.2856 8C27.1736 8 27.9296 8.324 28.5536 8.972C29.2016 9.596 29.5256 10.352 29.5256 11.24C29.5256 12.128 29.2016 12.896 28.5536 13.544ZM23.5856 34.064V16.064H28.9856V34.064H23.5856Z" fill="white"/>
<path d="M43.4852 21.248H39.7772V27.62C39.7772 28.34 40.0652 28.796 40.6412 28.988C41.2172 29.18 42.1652 29.24 43.4852 29.168V34.064C40.0532 34.424 37.6772 34.1 36.3572 33.092C35.0372 32.06 34.3772 30.236 34.3772 27.62V21.248H31.4972V16.064H34.3772V12.644L39.7772 11.024V16.064H43.4852V21.248Z" fill="white"/>
<path d="M188.452 33.496C187.78 34.168 186.976 34.504 186.04 34.504C185.104 34.504 184.3 34.168 183.628 33.496C182.956 32.824 182.62 32.02 182.62 31.084C182.62 30.148 182.956 29.344 183.628 28.672C184.3 28 185.104 27.664 186.04 27.664C186.976 27.664 187.78 28 188.452 28.672C189.124 29.344 189.46 30.148 189.46 31.084C189.46 32.02 189.124 32.824 188.452 33.496ZM204.698 16H210.098V34H204.698V32.308C203.618 33.772 201.902 34.504 199.55 34.504C197.63 34.504 196.022 33.844 194.726 32.524C193.454 31.204 192.818 29.38 192.818 27.052V16H198.218V26.26C198.218 27.316 198.506 28.132 199.082 28.708C199.682 29.26 200.438 29.536 201.35 29.536C202.382 29.536 203.198 29.224 203.798 28.6C204.398 27.976 204.698 27.052 204.698 25.828V16ZM218.994 21.256C218.994 21.616 219.294 21.916 219.894 22.156C220.518 22.372 221.262 22.6 222.126 22.84C222.99 23.056 223.854 23.344 224.718 23.704C225.582 24.064 226.314 24.664 226.914 25.504C227.538 26.32 227.85 27.352 227.85 28.6C227.85 30.544 227.13 32.02 225.69 33.028C224.25 34.012 222.474 34.504 220.362 34.504C216.57 34.504 213.99 33.076 212.622 30.22L217.302 27.556C217.782 28.972 218.802 29.68 220.362 29.68C221.658 29.68 222.306 29.308 222.306 28.564C222.306 28.204 221.994 27.904 221.37 27.664C220.77 27.424 220.038 27.196 219.174 26.98C218.31 26.74 217.446 26.44 216.582 26.08C215.718 25.696 214.974 25.108 214.35 24.316C213.75 23.524 213.45 22.552 213.45 21.4C213.45 19.528 214.122 18.076 215.466 17.044C216.834 16.012 218.514 15.496 220.506 15.496C221.994 15.496 223.35 15.832 224.574 16.504C225.798 17.152 226.782 18.1 227.526 19.348L222.918 21.832C222.342 20.776 221.538 20.248 220.506 20.248C219.498 20.248 218.994 20.584 218.994 21.256Z" fill="white"/>
</svg>
