<svg width="101" height="21" viewBox="0 0 101 21" fill="none" xmlns="http://www.w3.org/2000/svg">
<path fill-rule="evenodd" clip-rule="evenodd" d="M23.035 11.4171C23.035 8.33826 25.5522 5.83334 28.6459 5.83334C30.7632 5.83334 32.6106 7.00656 33.5658 8.73407L31.2048 10.0294C30.7097 9.12866 29.7482 8.51645 28.6459 8.51645C27.0388 8.51645 25.7313 9.81763 25.7313 11.417C25.7313 13.0162 27.0388 14.3174 28.6459 14.3174C29.738 14.3174 30.6918 13.7166 31.1909 12.8297L33.5598 14.1294C32.1138 17.0505 29.6362 20.0198 28.8827 20.8921C28.8234 20.9606 28.7371 21 28.6461 21C28.5552 21 28.4688 20.9606 28.4094 20.8921C27.6183 19.9765 24.9286 16.7512 23.5258 13.6964C23.2002 12.987 23.035 12.2202 23.035 11.4171Z" fill="#CADEF3"/>
<path fill-rule="evenodd" clip-rule="evenodd" d="M95.3887 5.83334C92.295 5.83334 89.7778 8.33826 89.7778 11.4171C89.7778 12.2202 89.943 12.987 90.2686 13.6964C91.6714 16.7512 94.3611 19.9765 95.1522 20.8921C95.1801 20.9243 95.214 20.95 95.2515 20.9683C95.2938 20.9889 95.3407 21 95.3889 21C95.4059 21 95.4226 20.9986 95.4391 20.9959C95.4528 20.9937 95.4662 20.9907 95.4794 20.9867C95.5355 20.9698 95.5864 20.9373 95.6255 20.8921C96.3463 20.0576 98.645 17.304 100.109 14.5093L97.6971 13.1859C97.1637 13.8737 96.3273 14.3174 95.3887 14.3174C94.2048 14.3174 93.1835 13.6113 92.7277 12.6L98.0498 12.6L100.409 12.6L100.875 12.6C100.958 12.2167 101 11.8215 101 11.4171C101 8.33826 98.4825 5.83334 95.3887 5.83334ZM98.0643 10.2667C97.616 9.23788 96.5853 8.51645 95.3887 8.51645C94.192 8.51645 93.1615 9.23788 92.7131 10.2667H98.0643Z" fill="#97B725"/>
<path d="M9.73353 0.583344V16.3333H7.7445V9.44534H1.98903V16.3333H0V0.583344H1.98903V7.47134H7.7445V0.583344H9.73353Z" fill="white"/>
<path d="M13.512 2.24234C13.3287 2.43834 13.103 2.53634 12.8349 2.53634C12.5669 2.53634 12.3341 2.44534 12.1367 2.26334C11.9392 2.06734 11.8404 1.82934 11.8404 1.54934C11.8404 1.28334 11.9392 1.05934 12.1367 0.877343C12.3341 0.681343 12.5669 0.583344 12.8349 0.583344C13.103 0.583344 13.3287 0.681343 13.512 0.877343C13.7095 1.05934 13.8083 1.28334 13.8083 1.54934C13.8083 1.81534 13.7095 2.04634 13.512 2.24234ZM13.8506 16.3333V5.83334H11.8616V16.3333H13.8506Z" fill="white"/>
<path d="M15.9732 0.583344H17.9622V5.83334H21.2632V7.80734H17.9622V11.0833C17.9622 11.9793 18.2867 12.7493 18.9356 13.3933C19.5845 14.0373 20.3603 14.3593 21.2632 14.3593V16.3333C19.8102 16.3333 18.5618 15.8293 17.5179 14.8213C16.4881 13.8133 15.9732 12.5953 15.9732 11.1673V0.583344Z" fill="white"/>
<path d="M40.7213 5.70732C42.238 5.70732 43.5138 6.22533 44.5486 7.26133C45.5835 8.28333 46.0938 9.53633 46.0796 11.0203V16.3333H44.0596V11.0203C44.0596 10.1103 43.7336 9.33333 43.0815 8.68933C42.4294 8.03133 41.6427 7.70232 40.7213 7.70232C39.7999 7.70232 39.0131 8.03133 38.3611 8.68933C37.709 9.33333 37.383 10.1103 37.383 11.0203V16.3333H35.3204V0.583324H37.383V6.86232C38.3469 6.09232 39.4597 5.70732 40.7213 5.70732Z" fill="white"/>
<path d="M56.2316 0.520325C58.4288 0.520325 60.307 1.29732 61.8663 2.85133C63.4398 4.39133 64.2265 6.24633 64.2265 8.41633V16.3333H62.2278V14.0863H50.2141V16.3333H48.2154V8.41633C48.2154 6.24633 48.995 4.39133 50.5543 2.85133C52.1278 1.29732 54.0202 0.520325 56.2316 0.520325ZM62.2278 12.1123V8.41633C62.2278 6.79233 61.6395 5.39932 60.463 4.23732C59.2864 3.07532 57.8759 2.49432 56.2316 2.49432C54.5731 2.49432 53.1555 3.07532 51.979 4.23732C50.8024 5.39932 50.2141 6.79233 50.2141 8.41633V12.1123H62.2278Z" fill="white"/>
<path d="M66.343 16.3333V10.9993C66.3572 9.55733 66.8817 8.33933 67.9165 7.34532C68.9513 6.33733 70.1988 5.83333 71.6588 5.83333V7.80732C70.7516 7.80732 69.972 8.12932 69.3199 8.77332C68.6678 9.41733 68.3418 10.1873 68.3418 11.0833V16.3333H66.343Z" fill="white"/>
<path d="M75.1452 2.24233C74.9609 2.43833 74.7341 2.53632 74.4647 2.53632C74.1954 2.53632 73.9615 2.44532 73.7631 2.26332C73.5646 2.06732 73.4654 1.82932 73.4654 1.54932C73.4654 1.28332 73.5646 1.05932 73.7631 0.877324C73.9615 0.681324 74.1954 0.583324 74.4647 0.583324C74.7341 0.583324 74.9609 0.681324 75.1452 0.877324C75.3436 1.05932 75.4428 1.28332 75.4428 1.54932C75.4428 1.81532 75.3436 2.04632 75.1452 2.24233ZM75.4854 16.3333V5.83333H73.4866V16.3333H75.4854Z" fill="white"/>
<path d="M87.9735 0.583324L87.931 11.0833C87.9168 12.5393 87.3852 13.7783 86.3362 14.8003C85.2872 15.8223 84.0327 16.3263 82.5727 16.3123C81.1126 16.2983 79.8651 15.7733 78.8303 14.7373C77.7955 13.6873 77.2852 12.4343 77.2994 10.9783C77.3136 9.53633 77.8381 8.30433 78.8729 7.28233C79.9218 6.26033 81.1835 5.75632 82.6577 5.77032C83.8484 5.77032 84.9541 6.15533 85.9748 6.92533V0.562324L87.9735 0.583324ZM82.6364 7.76532C81.7292 7.75132 80.9496 8.05933 80.2975 8.68933C79.6454 9.31933 79.3123 10.0893 79.2981 10.9993C79.2839 11.8953 79.6029 12.6723 80.255 13.3303C80.907 13.9743 81.6867 14.3033 82.5939 14.3173C83.5011 14.3313 84.2808 14.0163 84.9329 13.3723C85.5849 12.7283 85.9181 11.9583 85.9322 11.0623C85.9464 10.1663 85.6275 9.39633 84.9754 8.75233C84.3375 8.10833 83.5578 7.77933 82.6364 7.76532Z" fill="white"/>
</svg>
