<svg width="25" height="37" viewBox="0 0 25 37" fill="none" xmlns="http://www.w3.org/2000/svg">
<path d="M6.14 8.62101C3.75295 8.62101 1.81299 6.68845 1.81299 4.31051C1.81299 1.93256 3.75295 0 6.14 0C8.52704 0 10.467 1.93256 10.467 4.31051C10.4631 6.68845 8.52315 8.62101 6.14 8.62101ZM6.14 1.75054C4.72099 1.75054 3.56634 2.90078 3.56634 4.31438C3.56634 5.72798 4.72099 6.87822 6.14 6.87822C7.559 6.87822 8.71365 5.72798 8.71365 4.31438C8.71365 2.90078 7.55512 1.75054 6.14 1.75054Z" fill="#4263CA"/>
<path d="M21.5781 36.5444C21.0182 36.5444 20.4701 36.3973 19.9724 36.1145C19.2221 35.6846 18.6856 34.9914 18.4601 34.1587L16.3413 26.3472L8.11107 26.1341C7.25967 26.1109 6.46658 25.7662 5.87176 25.1582C5.31194 24.5811 4.98926 23.8337 4.96204 23.0358C4.94649 22.9739 4.93094 22.908 4.91539 22.8345L3.16593 14.043C2.73828 11.8975 4.14563 9.80612 6.29552 9.3801L7.8195 9.07802C8.85751 8.87276 9.91886 9.08576 10.8052 9.67444C11.6916 10.2631 12.2903 11.1616 12.4964 12.1957L14.0165 19.833L18.7595 19.9569C19.0822 19.9647 19.4048 20.0228 19.7158 20.1273C20.8161 20.4333 21.6791 21.2969 21.9785 22.3929L24.7154 32.4779C24.9409 33.3106 24.8282 34.1781 24.3966 34.9256C23.9651 35.673 23.2692 36.2075 22.4333 36.4321C22.1457 36.5096 21.8619 36.5444 21.5781 36.5444ZM8.58926 10.755C8.44542 10.755 8.30157 10.7705 8.15773 10.7976L6.63375 11.0997C5.42857 11.3359 4.64325 12.5055 4.8804 13.7061L6.62986 22.4975C6.64153 22.5517 6.65708 22.6137 6.67652 22.6718C6.69985 22.7493 6.7115 22.8306 6.7115 22.9119C6.7115 23.7059 7.35687 24.372 8.15384 24.3914L17.0411 24.6199C17.4299 24.6315 17.7642 24.891 17.8653 25.2666L20.1552 33.7056C20.2601 34.0852 20.5051 34.4027 20.8472 34.6002C21.1893 34.7978 21.5897 34.8481 21.9707 34.7435C22.3517 34.639 22.6705 34.395 22.8688 34.0542C23.067 33.7134 23.1176 33.3145 23.0126 32.9349L20.2757 22.8499C20.1396 22.3426 19.7353 21.9437 19.2221 21.8081C19.1988 21.8043 19.1793 21.7965 19.1599 21.7888C19.0122 21.7384 18.8606 21.7113 18.7089 21.7075L13.2662 21.568C12.858 21.5564 12.5081 21.2659 12.4303 20.8632L10.7741 12.5404C10.6575 11.9633 10.3232 11.4637 9.82555 11.1306C9.45233 10.8828 9.02469 10.755 8.58926 10.755Z" fill="#4263CA"/>
</svg>
