<svg width="44" height="44" viewBox="0 0 44 44" fill="none" xmlns="http://www.w3.org/2000/svg">
<path fill-rule="evenodd" clip-rule="evenodd" d="M0 22C0 9.84863 9.84863 0 22 0C34.1514 0 44 9.84863 44 22C44 34.1514 34.1514 44 22 44C9.84863 44 0 34.1514 0 22ZM31.4531 23.5684C32.3081 23.5684 33 22.877 33 22.0215C33 21.166 32.3081 20.4746 31.4531 20.4746H23.5684V12.5898C23.5684 11.7344 22.8765 11.043 22.0215 11.043C21.1665 11.043 20.4746 11.7344 20.4746 12.5898V20.4746H12.5469C11.6919 20.4746 11 21.166 11 22.0215C11 22.877 11.6919 23.5684 12.5469 23.5684H20.4746V31.4102C20.4746 32.2656 21.1665 32.957 22.0215 32.957C22.8765 32.957 23.5684 32.2656 23.5684 31.4102V23.5684H31.4531Z" fill="#97B725"/>
</svg>
