<svg width="48" height="48" viewBox="0 0 48 48" fill="none" xmlns="http://www.w3.org/2000/svg">
<path d="M2 24C2 11.8483 11.8483 2 24 2C36.1517 2 46 11.8483 46 24C46 36.1517 36.1517 46 24 46C11.8483 46 2 36.1517 2 24Z" stroke="#97B725" stroke-width="4"/>
<path fill-rule="evenodd" clip-rule="evenodd" d="M39 24C39 24.8297 38.3297 25.5 37.5 25.5H25.5V37.5C25.5 38.3297 24.8297 39 24 39C23.1703 39 22.5 38.3297 22.5 37.5V25.5H10.5C9.67031 25.5 9 24.8297 9 24C9 23.1703 9.67031 22.5 10.5 22.5H22.5V10.5C22.5 9.67031 23.1703 9 24 9C24.8297 9 25.5 9.67031 25.5 10.5V22.5H37.5C38.3297 22.5 39 23.1703 39 24Z" fill="#97B725"/>
</svg>
