<svg width="42" height="40" viewBox="0 0 42 40" fill="none" xmlns="http://www.w3.org/2000/svg">
<path d="M20.9306 22.4483C27.1375 22.4483 32.172 17.4138 32.172 11.2069C32.172 5.00007 27.1374 0 20.9306 0C14.7237 0 9.68921 5.03451 9.68921 11.2069C9.68921 17.3794 14.7236 22.4483 20.9306 22.4483ZM20.9306 2.93105C25.4823 2.93105 29.2065 6.65516 29.2065 11.2069C29.2065 15.7587 25.4823 19.4827 20.9306 19.4827C16.3789 19.4827 12.6547 15.7586 12.6547 11.2069C12.6547 6.65509 16.3788 2.93105 20.9306 2.93105Z" fill="white"/>
<path d="M1.48274 39.9998H40.5173C41.3448 39.9998 42 39.3446 42 38.517C42 30.7584 35.6897 24.4136 27.8965 24.4136H14.1035C6.34484 24.4136 0 30.7239 0 38.517C0 39.3446 0.655162 39.9998 1.48274 39.9998ZM14.1035 27.3791H27.8965C33.5517 27.3791 38.2069 31.586 38.931 37.0342H3.06895C3.79307 31.6205 8.4483 27.3791 14.1035 27.3791Z" fill="white"/>
</svg>
