<svg width="36" height="32" viewBox="0 0 36 32" fill="none" xmlns="http://www.w3.org/2000/svg">
<path d="M32.5052 6.05747H26.7236V3.48085C26.7236 1.57813 25.1909 0.0301514 23.3071 0.0301514H12.6919C10.8081 0.0301514 9.27542 1.57807 9.27542 3.48085V6.05747H3.49384C1.58346 6.05747 0.0292969 7.62724 0.0292969 9.55668V28.4708C0.0292969 30.4003 1.58352 31.97 3.49384 31.97H32.5052C34.4155 31.97 35.9698 30.4003 35.9698 28.4708V9.55668C35.9697 7.62724 34.4155 6.05747 32.5052 6.05747ZM33.4169 28.4708C33.4169 28.9793 33.0086 29.3916 32.5052 29.3916H29.8978V8.63589H32.5052C33.0087 8.63589 33.4169 9.04817 33.4169 9.55674L33.4169 28.4708ZM2.58212 28.4708V9.55668C2.58212 9.04811 2.99031 8.63583 3.49384 8.63583H6.10119V29.3915H3.49384C2.99025 29.3916 2.58212 28.9793 2.58212 28.4708ZM11.8282 3.48091C11.8282 3.00809 12.2237 2.60858 12.6919 2.60858H23.3071C23.7753 2.60858 24.1708 3.00809 24.1708 3.48091V6.05753H11.8282V3.48091ZM27.345 29.3916H8.65396V8.63589H27.345V29.3916Z" fill="white"/>
<path d="M32.5057 32H3.49434C1.56757 32 0 30.4168 0 28.4707V9.55662C0 7.61057 1.56757 6.02732 3.49434 6.02732H9.24606V3.48079C9.24606 1.56146 10.7921 0 12.6923 0H23.3076C25.2079 0 26.7538 1.56146 26.7538 3.48079V6.02732H32.5056C34.4324 6.02732 35.9999 7.61057 36 9.55662V28.4707C36.0001 30.4168 34.4325 32 32.5057 32ZM3.49434 6.0875C1.6004 6.0875 0.0595897 7.64373 0.0595897 9.55662V28.4707C0.0595897 30.3835 1.6004 31.9398 3.49434 31.9398H32.5057C34.3996 31.9398 35.9405 30.3836 35.9405 28.4707V9.55662C35.9404 7.64373 34.3996 6.0875 32.5057 6.0875H26.6943V3.48079C26.6943 1.59469 25.1751 0.0601859 23.3076 0.0601859H12.6924C10.825 0.0601859 9.30571 1.59469 9.30571 3.48079V6.0875H3.49434ZM32.5057 29.4216H29.8685V8.60574H32.5057C33.0249 8.60574 33.4472 9.03234 33.4472 9.55668L33.4472 28.4708C33.4472 28.995 33.0248 29.4216 32.5057 29.4216ZM29.9281 29.3615H32.5057C32.9919 29.3615 33.3876 28.9618 33.3876 28.4707L33.3876 9.55662C33.3876 9.06544 32.992 8.66587 32.5057 8.66587H29.9281V29.3615ZM27.3753 29.4216H8.62466V8.60574H27.3753V29.4216ZM8.68425 29.3615H27.3157V8.66593H8.68425V29.3615ZM6.13148 29.4216H3.49434C2.9752 29.4216 2.55282 28.995 2.55282 28.4707V9.55662C2.55282 9.03228 2.9752 8.60568 3.49434 8.60568H6.13148V29.4216ZM3.49434 8.66587C3.00803 8.66587 2.61241 9.06544 2.61241 9.55662V28.4707C2.61241 28.9618 3.00803 29.3615 3.49434 29.3615H6.07189V8.66593H3.49434V8.66587ZM24.2011 6.08756H11.7989V3.48085C11.7989 2.99166 12.2081 2.57842 12.6924 2.57842H23.3076C23.7919 2.57842 24.2011 2.99166 24.2011 3.48085V6.08756ZM11.8585 6.02738H24.1415V3.48085C24.1415 3.02434 23.7596 2.63861 23.3076 2.63861H12.6924C12.2404 2.63861 11.8585 3.02434 11.8585 3.48085V6.02738Z" fill="white"/>
</svg>
